<mxfile host="Electron" agent="Mozilla/5.0 (Macintosh; Intel Mac OS X 10_15_7) AppleWebKit/537.36 (KHTML, like Gecko) draw.io/27.0.5 Chrome/134.0.6998.205 Electron/35.3.0 Safari/537.36" version="27.0.5">
  <diagram name="Page-1" id="kImswYdZSM1DTY8uQLym">
    <mxGraphModel dx="2111" dy="905" grid="1" gridSize="10" guides="1" tooltips="1" connect="1" arrows="1" fold="1" page="1" pageScale="1" pageWidth="850" pageHeight="1100" math="0" shadow="0">
      <root>
        <mxCell id="0" />
        <mxCell id="1" parent="0" />
        <mxCell id="KQ2zfEyGrpS8bYaP5kKO-1" value="&lt;font style=&quot;font-size: 24px;&quot;&gt;Car&lt;/font&gt;&lt;div&gt;&lt;font style=&quot;font-size: 24px;&quot;&gt;汽车&lt;/font&gt;&lt;/div&gt;" style="rounded=0;whiteSpace=wrap;html=1;shadow=0;sketch=1;curveFitting=1;jiggle=2;fillColor=#fff2cc;strokeColor=#d6b656;" vertex="1" parent="1">
          <mxGeometry x="280" y="40" width="240" height="120" as="geometry" />
        </mxCell>
        <mxCell id="KQ2zfEyGrpS8bYaP5kKO-7" style="edgeStyle=orthogonalEdgeStyle;rounded=0;orthogonalLoop=1;jettySize=auto;html=1;entryX=0.25;entryY=1;entryDx=0;entryDy=0;" edge="1" parent="1" source="KQ2zfEyGrpS8bYaP5kKO-2" target="KQ2zfEyGrpS8bYaP5kKO-1">
          <mxGeometry relative="1" as="geometry">
            <Array as="points">
              <mxPoint x="100" y="240" />
              <mxPoint x="340" y="240" />
            </Array>
          </mxGeometry>
        </mxCell>
        <mxCell id="KQ2zfEyGrpS8bYaP5kKO-8" value="&lt;font style=&quot;font-size: 16px;&quot;&gt;继承&lt;/font&gt;" style="edgeLabel;html=1;align=center;verticalAlign=middle;resizable=0;points=[];" vertex="1" connectable="0" parent="KQ2zfEyGrpS8bYaP5kKO-7">
          <mxGeometry x="-0.3125" y="-3" relative="1" as="geometry">
            <mxPoint x="41" y="-3" as="offset" />
          </mxGeometry>
        </mxCell>
        <mxCell id="KQ2zfEyGrpS8bYaP5kKO-2" value="&lt;font style=&quot;font-size: 24px;&quot;&gt;Gasoline Car&lt;/font&gt;&lt;div&gt;&lt;font style=&quot;font-size: 24px;&quot;&gt;燃油车&lt;/font&gt;&lt;/div&gt;" style="rounded=0;whiteSpace=wrap;html=1;shadow=0;sketch=1;curveFitting=1;jiggle=2;fillColor=#f8cecc;strokeColor=#b85450;" vertex="1" parent="1">
          <mxGeometry x="-20" y="280" width="240" height="120" as="geometry" />
        </mxCell>
        <mxCell id="KQ2zfEyGrpS8bYaP5kKO-10" style="edgeStyle=orthogonalEdgeStyle;rounded=0;orthogonalLoop=1;jettySize=auto;html=1;entryX=0.75;entryY=1;entryDx=0;entryDy=0;" edge="1" parent="1" source="KQ2zfEyGrpS8bYaP5kKO-3" target="KQ2zfEyGrpS8bYaP5kKO-1">
          <mxGeometry relative="1" as="geometry">
            <Array as="points">
              <mxPoint x="720" y="240" />
              <mxPoint x="460" y="240" />
            </Array>
          </mxGeometry>
        </mxCell>
        <mxCell id="KQ2zfEyGrpS8bYaP5kKO-11" value="&lt;font style=&quot;font-size: 16px;&quot;&gt;继承&lt;/font&gt;" style="edgeLabel;html=1;align=center;verticalAlign=middle;resizable=0;points=[];" vertex="1" connectable="0" parent="KQ2zfEyGrpS8bYaP5kKO-10">
          <mxGeometry x="-0.2308" y="1" relative="1" as="geometry">
            <mxPoint x="-20" as="offset" />
          </mxGeometry>
        </mxCell>
        <mxCell id="KQ2zfEyGrpS8bYaP5kKO-3" value="&lt;font style=&quot;font-size: 24px;&quot;&gt;Electric Car&lt;/font&gt;&lt;div&gt;&lt;font style=&quot;font-size: 24px;&quot;&gt;电动汽车&lt;/font&gt;&lt;/div&gt;" style="rounded=0;whiteSpace=wrap;html=1;shadow=0;sketch=1;curveFitting=1;jiggle=2;fillColor=#d5e8d4;strokeColor=#82b366;" vertex="1" parent="1">
          <mxGeometry x="600" y="280" width="240" height="120" as="geometry" />
        </mxCell>
        <mxCell id="KQ2zfEyGrpS8bYaP5kKO-6" style="edgeStyle=orthogonalEdgeStyle;rounded=0;orthogonalLoop=1;jettySize=auto;html=1;entryX=0.25;entryY=1;entryDx=0;entryDy=0;" edge="1" parent="1" source="KQ2zfEyGrpS8bYaP5kKO-14" target="KQ2zfEyGrpS8bYaP5kKO-2">
          <mxGeometry relative="1" as="geometry">
            <mxPoint x="-60" y="540" as="sourcePoint" />
          </mxGeometry>
        </mxCell>
        <mxCell id="KQ2zfEyGrpS8bYaP5kKO-12" value="&lt;font style=&quot;font-size: 16px;&quot;&gt;实例化&lt;/font&gt;" style="edgeLabel;html=1;align=center;verticalAlign=middle;resizable=0;points=[];" vertex="1" connectable="0" parent="KQ2zfEyGrpS8bYaP5kKO-6">
          <mxGeometry x="-0.16" y="1" relative="1" as="geometry">
            <mxPoint x="19" as="offset" />
          </mxGeometry>
        </mxCell>
        <mxCell id="KQ2zfEyGrpS8bYaP5kKO-28" style="edgeStyle=orthogonalEdgeStyle;rounded=0;orthogonalLoop=1;jettySize=auto;html=1;entryX=0.75;entryY=1;entryDx=0;entryDy=0;" edge="1" parent="1" source="KQ2zfEyGrpS8bYaP5kKO-21" target="KQ2zfEyGrpS8bYaP5kKO-2">
          <mxGeometry relative="1" as="geometry" />
        </mxCell>
        <mxCell id="KQ2zfEyGrpS8bYaP5kKO-29" value="&lt;span style=&quot;font-size: 16px;&quot;&gt;实例化&lt;/span&gt;" style="edgeLabel;html=1;align=center;verticalAlign=middle;resizable=0;points=[];" vertex="1" connectable="0" parent="KQ2zfEyGrpS8bYaP5kKO-28">
          <mxGeometry x="-0.0308" y="1" relative="1" as="geometry">
            <mxPoint as="offset" />
          </mxGeometry>
        </mxCell>
        <mxCell id="KQ2zfEyGrpS8bYaP5kKO-21" value="&lt;span style=&quot;font-size: 24px;&quot;&gt;宝马x7&lt;/span&gt;" style="rounded=0;whiteSpace=wrap;html=1;shadow=0;sketch=1;curveFitting=1;jiggle=2;fillColor=#f8cecc;strokeColor=#b85450;" vertex="1" parent="1">
          <mxGeometry x="140" y="560" width="240" height="120" as="geometry" />
        </mxCell>
        <mxCell id="KQ2zfEyGrpS8bYaP5kKO-22" value="&lt;font style=&quot;font-size: 18px;&quot;&gt;座位数 int numOfSeat&lt;/font&gt;" style="rounded=0;whiteSpace=wrap;html=1;fillColor=#fff2cc;strokeColor=#d6b656;sketch=1;curveFitting=1;jiggle=2;" vertex="1" parent="1">
          <mxGeometry x="140" y="680" width="200" height="40" as="geometry" />
        </mxCell>
        <mxCell id="KQ2zfEyGrpS8bYaP5kKO-23" value="&lt;span style=&quot;font-size: 18px;&quot;&gt;排量 float&amp;nbsp;&lt;/span&gt;&lt;span style=&quot;font-size: 18px; background-color: transparent; color: light-dark(rgb(0, 0, 0), rgb(255, 255, 255));&quot;&gt;displacement&lt;/span&gt;" style="rounded=0;whiteSpace=wrap;html=1;fillColor=#f8cecc;strokeColor=#b85450;sketch=1;curveFitting=1;jiggle=2;" vertex="1" parent="1">
          <mxGeometry x="140" y="760" width="200" height="40" as="geometry" />
        </mxCell>
        <mxCell id="KQ2zfEyGrpS8bYaP5kKO-24" value="&lt;span style=&quot;font-size: 18px;&quot;&gt;门数 int&amp;nbsp;&lt;/span&gt;&lt;span style=&quot;font-size: 18px; background-color: transparent; color: light-dark(rgb(0, 0, 0), rgb(255, 255, 255));&quot;&gt;numOfDoors&lt;/span&gt;" style="rounded=0;whiteSpace=wrap;html=1;fillColor=#fff2cc;strokeColor=#d6b656;sketch=1;curveFitting=1;jiggle=2;" vertex="1" parent="1">
          <mxGeometry x="140" y="720" width="200" height="40" as="geometry" />
        </mxCell>
        <mxCell id="KQ2zfEyGrpS8bYaP5kKO-25" value="&lt;font style=&quot;font-size: 18px;&quot;&gt;7&lt;/font&gt;" style="rounded=0;whiteSpace=wrap;html=1;fillColor=#fff2cc;strokeColor=#d6b656;sketch=1;curveFitting=1;jiggle=2;" vertex="1" parent="1">
          <mxGeometry x="340" y="680" width="40" height="40" as="geometry" />
        </mxCell>
        <mxCell id="KQ2zfEyGrpS8bYaP5kKO-26" value="&lt;font style=&quot;font-size: 18px;&quot;&gt;5&lt;/font&gt;" style="rounded=0;whiteSpace=wrap;html=1;fillColor=#fff2cc;strokeColor=#d6b656;sketch=1;curveFitting=1;jiggle=2;" vertex="1" parent="1">
          <mxGeometry x="340" y="720" width="40" height="40" as="geometry" />
        </mxCell>
        <mxCell id="KQ2zfEyGrpS8bYaP5kKO-27" value="&lt;span style=&quot;font-size: 18px;&quot;&gt;3.0&lt;/span&gt;" style="rounded=0;whiteSpace=wrap;html=1;fillColor=#f8cecc;strokeColor=#b85450;sketch=1;curveFitting=1;jiggle=2;" vertex="1" parent="1">
          <mxGeometry x="340" y="760" width="40" height="40" as="geometry" />
        </mxCell>
        <mxCell id="KQ2zfEyGrpS8bYaP5kKO-30" value="" style="group" vertex="1" connectable="0" parent="1">
          <mxGeometry x="-180" y="560" width="240" height="240" as="geometry" />
        </mxCell>
        <mxCell id="KQ2zfEyGrpS8bYaP5kKO-14" value="&lt;span style=&quot;font-size: 24px;&quot;&gt;大众帕萨特&lt;/span&gt;" style="rounded=0;whiteSpace=wrap;html=1;shadow=0;sketch=1;curveFitting=1;jiggle=2;fillColor=#f8cecc;strokeColor=#b85450;" vertex="1" parent="KQ2zfEyGrpS8bYaP5kKO-30">
          <mxGeometry width="240" height="120" as="geometry" />
        </mxCell>
        <mxCell id="KQ2zfEyGrpS8bYaP5kKO-15" value="&lt;font style=&quot;font-size: 18px;&quot;&gt;座位数 int numOfSeat&lt;/font&gt;" style="rounded=0;whiteSpace=wrap;html=1;fillColor=#fff2cc;strokeColor=#d6b656;sketch=1;curveFitting=1;jiggle=2;" vertex="1" parent="KQ2zfEyGrpS8bYaP5kKO-30">
          <mxGeometry y="120" width="200" height="40" as="geometry" />
        </mxCell>
        <mxCell id="KQ2zfEyGrpS8bYaP5kKO-16" value="&lt;span style=&quot;font-size: 18px;&quot;&gt;排量 float&amp;nbsp;&lt;/span&gt;&lt;span style=&quot;font-size: 18px; background-color: transparent; color: light-dark(rgb(0, 0, 0), rgb(255, 255, 255));&quot;&gt;displacement&lt;/span&gt;" style="rounded=0;whiteSpace=wrap;html=1;fillColor=#f8cecc;strokeColor=#b85450;sketch=1;curveFitting=1;jiggle=2;" vertex="1" parent="KQ2zfEyGrpS8bYaP5kKO-30">
          <mxGeometry y="200" width="200" height="40" as="geometry" />
        </mxCell>
        <mxCell id="KQ2zfEyGrpS8bYaP5kKO-17" value="&lt;span style=&quot;font-size: 18px;&quot;&gt;门数 int&amp;nbsp;&lt;/span&gt;&lt;span style=&quot;font-size: 18px; background-color: transparent; color: light-dark(rgb(0, 0, 0), rgb(255, 255, 255));&quot;&gt;numOfDoors&lt;/span&gt;" style="rounded=0;whiteSpace=wrap;html=1;fillColor=#fff2cc;strokeColor=#d6b656;sketch=1;curveFitting=1;jiggle=2;" vertex="1" parent="KQ2zfEyGrpS8bYaP5kKO-30">
          <mxGeometry y="160" width="200" height="40" as="geometry" />
        </mxCell>
        <mxCell id="KQ2zfEyGrpS8bYaP5kKO-18" value="&lt;font style=&quot;font-size: 18px;&quot;&gt;5&lt;/font&gt;" style="rounded=0;whiteSpace=wrap;html=1;fillColor=#fff2cc;strokeColor=#d6b656;sketch=1;curveFitting=1;jiggle=2;" vertex="1" parent="KQ2zfEyGrpS8bYaP5kKO-30">
          <mxGeometry x="200" y="120" width="40" height="40" as="geometry" />
        </mxCell>
        <mxCell id="KQ2zfEyGrpS8bYaP5kKO-19" value="&lt;font style=&quot;font-size: 18px;&quot;&gt;4&lt;/font&gt;" style="rounded=0;whiteSpace=wrap;html=1;fillColor=#fff2cc;strokeColor=#d6b656;sketch=1;curveFitting=1;jiggle=2;" vertex="1" parent="KQ2zfEyGrpS8bYaP5kKO-30">
          <mxGeometry x="200" y="160" width="40" height="40" as="geometry" />
        </mxCell>
        <mxCell id="KQ2zfEyGrpS8bYaP5kKO-20" value="&lt;span style=&quot;font-size: 18px;&quot;&gt;2.0&lt;/span&gt;" style="rounded=0;whiteSpace=wrap;html=1;fillColor=#f8cecc;strokeColor=#b85450;sketch=1;curveFitting=1;jiggle=2;" vertex="1" parent="KQ2zfEyGrpS8bYaP5kKO-30">
          <mxGeometry x="200" y="200" width="40" height="40" as="geometry" />
        </mxCell>
        <mxCell id="KQ2zfEyGrpS8bYaP5kKO-35" style="edgeStyle=orthogonalEdgeStyle;rounded=0;orthogonalLoop=1;jettySize=auto;html=1;entryX=0.25;entryY=1;entryDx=0;entryDy=0;" edge="1" parent="1" source="KQ2zfEyGrpS8bYaP5kKO-31" target="KQ2zfEyGrpS8bYaP5kKO-3">
          <mxGeometry relative="1" as="geometry" />
        </mxCell>
        <mxCell id="KQ2zfEyGrpS8bYaP5kKO-36" value="&lt;span style=&quot;font-size: 16px;&quot;&gt;实例化&lt;/span&gt;" style="edgeLabel;html=1;align=center;verticalAlign=middle;resizable=0;points=[];" vertex="1" connectable="0" parent="KQ2zfEyGrpS8bYaP5kKO-35">
          <mxGeometry x="-0.0986" relative="1" as="geometry">
            <mxPoint x="11" as="offset" />
          </mxGeometry>
        </mxCell>
        <mxCell id="KQ2zfEyGrpS8bYaP5kKO-31" value="&lt;span style=&quot;font-size: 24px;&quot;&gt;小米SU7&lt;/span&gt;" style="rounded=0;whiteSpace=wrap;html=1;shadow=0;sketch=1;curveFitting=1;jiggle=2;fillColor=#d5e8d4;strokeColor=#82b366;" vertex="1" parent="1">
          <mxGeometry x="480" y="560" width="240" height="120" as="geometry" />
        </mxCell>
        <mxCell id="KQ2zfEyGrpS8bYaP5kKO-32" value="&lt;font style=&quot;font-size: 18px;&quot;&gt;座位数 int numOfSeat&lt;/font&gt;" style="rounded=0;whiteSpace=wrap;html=1;fillColor=#fff2cc;strokeColor=#d6b656;sketch=1;curveFitting=1;jiggle=2;" vertex="1" parent="1">
          <mxGeometry x="480" y="680" width="200" height="40" as="geometry" />
        </mxCell>
        <mxCell id="KQ2zfEyGrpS8bYaP5kKO-33" value="&lt;span style=&quot;font-size: 18px;&quot;&gt;纯电续航 int cltc&lt;/span&gt;" style="rounded=0;whiteSpace=wrap;html=1;fillColor=#d5e8d4;strokeColor=#82b366;sketch=1;curveFitting=1;jiggle=2;" vertex="1" parent="1">
          <mxGeometry x="480" y="760" width="200" height="40" as="geometry" />
        </mxCell>
        <mxCell id="KQ2zfEyGrpS8bYaP5kKO-34" value="&lt;span style=&quot;font-size: 18px;&quot;&gt;门数 int&amp;nbsp;&lt;/span&gt;&lt;span style=&quot;font-size: 18px; background-color: transparent; color: light-dark(rgb(0, 0, 0), rgb(255, 255, 255));&quot;&gt;numOfDoors&lt;/span&gt;" style="rounded=0;whiteSpace=wrap;html=1;fillColor=#fff2cc;strokeColor=#d6b656;sketch=1;curveFitting=1;jiggle=2;" vertex="1" parent="1">
          <mxGeometry x="480" y="720" width="200" height="40" as="geometry" />
        </mxCell>
        <mxCell id="KQ2zfEyGrpS8bYaP5kKO-37" value="&lt;font style=&quot;font-size: 18px;&quot;&gt;5&lt;/font&gt;" style="rounded=0;whiteSpace=wrap;html=1;fillColor=#fff2cc;strokeColor=#d6b656;sketch=1;curveFitting=1;jiggle=2;" vertex="1" parent="1">
          <mxGeometry x="680" y="680" width="40" height="40" as="geometry" />
        </mxCell>
        <mxCell id="KQ2zfEyGrpS8bYaP5kKO-38" value="&lt;span style=&quot;font-size: 18px;&quot;&gt;4&lt;/span&gt;" style="rounded=0;whiteSpace=wrap;html=1;fillColor=#fff2cc;strokeColor=#d6b656;sketch=1;curveFitting=1;jiggle=2;" vertex="1" parent="1">
          <mxGeometry x="680" y="720" width="40" height="40" as="geometry" />
        </mxCell>
        <mxCell id="KQ2zfEyGrpS8bYaP5kKO-39" value="&lt;span style=&quot;font-size: 18px;&quot;&gt;700&lt;/span&gt;" style="rounded=0;whiteSpace=wrap;html=1;fillColor=#d5e8d4;strokeColor=#82b366;sketch=1;curveFitting=1;jiggle=2;" vertex="1" parent="1">
          <mxGeometry x="680" y="760" width="40" height="40" as="geometry" />
        </mxCell>
        <mxCell id="KQ2zfEyGrpS8bYaP5kKO-48" style="edgeStyle=orthogonalEdgeStyle;rounded=0;orthogonalLoop=1;jettySize=auto;html=1;entryX=0.75;entryY=1;entryDx=0;entryDy=0;" edge="1" parent="1" source="KQ2zfEyGrpS8bYaP5kKO-41" target="KQ2zfEyGrpS8bYaP5kKO-3">
          <mxGeometry relative="1" as="geometry" />
        </mxCell>
        <mxCell id="KQ2zfEyGrpS8bYaP5kKO-49" value="&lt;span style=&quot;font-size: 16px;&quot;&gt;实例化&lt;/span&gt;" style="edgeLabel;html=1;align=center;verticalAlign=middle;resizable=0;points=[];" vertex="1" connectable="0" parent="KQ2zfEyGrpS8bYaP5kKO-48">
          <mxGeometry x="0.1133" y="-2" relative="1" as="geometry">
            <mxPoint as="offset" />
          </mxGeometry>
        </mxCell>
        <mxCell id="KQ2zfEyGrpS8bYaP5kKO-41" value="&lt;span style=&quot;font-size: 24px;&quot;&gt;特斯拉Model Y L&lt;/span&gt;" style="rounded=0;whiteSpace=wrap;html=1;shadow=0;sketch=1;curveFitting=1;jiggle=2;fillColor=#d5e8d4;strokeColor=#82b366;" vertex="1" parent="1">
          <mxGeometry x="800" y="560" width="240" height="120" as="geometry" />
        </mxCell>
        <mxCell id="KQ2zfEyGrpS8bYaP5kKO-42" value="&lt;font style=&quot;font-size: 18px;&quot;&gt;座位数 int numOfSeat&lt;/font&gt;" style="rounded=0;whiteSpace=wrap;html=1;fillColor=#fff2cc;strokeColor=#d6b656;sketch=1;curveFitting=1;jiggle=2;" vertex="1" parent="1">
          <mxGeometry x="800" y="680" width="200" height="40" as="geometry" />
        </mxCell>
        <mxCell id="KQ2zfEyGrpS8bYaP5kKO-43" value="&lt;span style=&quot;font-size: 18px;&quot;&gt;纯电续航 int cltc&lt;/span&gt;" style="rounded=0;whiteSpace=wrap;html=1;fillColor=#d5e8d4;strokeColor=#82b366;sketch=1;curveFitting=1;jiggle=2;" vertex="1" parent="1">
          <mxGeometry x="800" y="760" width="200" height="40" as="geometry" />
        </mxCell>
        <mxCell id="KQ2zfEyGrpS8bYaP5kKO-44" value="&lt;span style=&quot;font-size: 18px;&quot;&gt;门数 int&amp;nbsp;&lt;/span&gt;&lt;span style=&quot;font-size: 18px; background-color: transparent; color: light-dark(rgb(0, 0, 0), rgb(255, 255, 255));&quot;&gt;numOfDoors&lt;/span&gt;" style="rounded=0;whiteSpace=wrap;html=1;fillColor=#fff2cc;strokeColor=#d6b656;sketch=1;curveFitting=1;jiggle=2;" vertex="1" parent="1">
          <mxGeometry x="800" y="720" width="200" height="40" as="geometry" />
        </mxCell>
        <mxCell id="KQ2zfEyGrpS8bYaP5kKO-45" value="&lt;font style=&quot;font-size: 18px;&quot;&gt;6&lt;/font&gt;" style="rounded=0;whiteSpace=wrap;html=1;fillColor=#fff2cc;strokeColor=#d6b656;sketch=1;curveFitting=1;jiggle=2;" vertex="1" parent="1">
          <mxGeometry x="1000" y="680" width="40" height="40" as="geometry" />
        </mxCell>
        <mxCell id="KQ2zfEyGrpS8bYaP5kKO-46" value="&lt;span style=&quot;font-size: 18px;&quot;&gt;5&lt;/span&gt;" style="rounded=0;whiteSpace=wrap;html=1;fillColor=#fff2cc;strokeColor=#d6b656;sketch=1;curveFitting=1;jiggle=2;" vertex="1" parent="1">
          <mxGeometry x="1000" y="720" width="40" height="40" as="geometry" />
        </mxCell>
        <mxCell id="KQ2zfEyGrpS8bYaP5kKO-47" value="&lt;span style=&quot;font-size: 18px;&quot;&gt;751&lt;/span&gt;" style="rounded=0;whiteSpace=wrap;html=1;fillColor=#d5e8d4;strokeColor=#82b366;sketch=1;curveFitting=1;jiggle=2;" vertex="1" parent="1">
          <mxGeometry x="1000" y="760" width="40" height="40" as="geometry" />
        </mxCell>
      </root>
    </mxGraphModel>
  </diagram>
</mxfile>
